<mxfile host="app.diagrams.net" agent="Mozilla/5.0 (Windows NT 10.0; Win64; x64) AppleWebKit/537.36 (KHTML, like Gecko) Chrome/140.0.0.0 Safari/537.36 Edg/140.0.0.0" version="28.2.4">
  <diagram name="第 1 页" id="FUbYzkAxzCpSJDZcHBcb">
    <mxGraphModel dx="3445" dy="1910" grid="1" gridSize="10" guides="1" tooltips="1" connect="1" arrows="1" fold="1" page="1" pageScale="1" pageWidth="827" pageHeight="1169" math="0" shadow="0">
      <root>
        <mxCell id="0" />
        <mxCell id="1" parent="0" />
        <mxCell id="taITbC-kTsuwHHpepLqA-1" value="测试准备阶段" style="whiteSpace=wrap;strokeWidth=2;verticalAlign=top;fontSize=18;fillColor=#f5f5f5;fontColor=#333333;strokeColor=#666666;" vertex="1" parent="1">
          <mxGeometry x="266" y="124" width="510" height="124" as="geometry" />
        </mxCell>
        <mxCell id="taITbC-kTsuwHHpepLqA-2" value="定义并发参数" style="whiteSpace=wrap;strokeWidth=2;fillColor=#fff2cc;strokeColor=#d6b656;" vertex="1" parent="taITbC-kTsuwHHpepLqA-1">
          <mxGeometry x="46" y="43" width="156" height="54" as="geometry" />
        </mxCell>
        <mxCell id="taITbC-kTsuwHHpepLqA-3" value="配置抽数命令与规则" style="whiteSpace=wrap;strokeWidth=2;fillColor=#fff2cc;strokeColor=#d6b656;" vertex="1" parent="taITbC-kTsuwHHpepLqA-1">
          <mxGeometry x="277" y="43" width="204" height="54" as="geometry" />
        </mxCell>
        <mxCell id="taITbC-kTsuwHHpepLqA-4" value="" style="curved=1;startArrow=none;endArrow=block;exitX=1;exitY=0.5;entryX=0;entryY=0.5;rounded=0;" edge="1" parent="taITbC-kTsuwHHpepLqA-1" source="taITbC-kTsuwHHpepLqA-2" target="taITbC-kTsuwHHpepLqA-3">
          <mxGeometry relative="1" as="geometry">
            <Array as="points" />
          </mxGeometry>
        </mxCell>
        <mxCell id="taITbC-kTsuwHHpepLqA-5" value="开始测试" style="whiteSpace=wrap;strokeWidth=2;fontSize=18;fillColor=#e1d5e7;strokeColor=#9673a6;" vertex="1" parent="1">
          <mxGeometry x="459" y="20" width="124" height="54" as="geometry" />
        </mxCell>
        <mxCell id="taITbC-kTsuwHHpepLqA-6" value="启动核心测试场景" style="rhombus;strokeWidth=2;whiteSpace=wrap;fontSize=18;fillColor=#f8cecc;strokeColor=#b85450;" vertex="1" parent="1">
          <mxGeometry x="430" y="298" width="182" height="182" as="geometry" />
        </mxCell>
        <mxCell id="taITbC-kTsuwHHpepLqA-7" value="场景一：带宽基准测试" style="whiteSpace=wrap;strokeWidth=2;fontSize=18;fillColor=#b1ddf0;strokeColor=#10739e;" vertex="1" parent="1">
          <mxGeometry x="20" y="530" width="220" height="54" as="geometry" />
        </mxCell>
        <mxCell id="taITbC-kTsuwHHpepLqA-8" value="执行抽数任务" style="whiteSpace=wrap;strokeWidth=2;fontSize=18;fillColor=#f9f7ed;strokeColor=#36393d;" vertex="1" parent="1">
          <mxGeometry x="52" y="634" width="156" height="54" as="geometry" />
        </mxCell>
        <mxCell id="taITbC-kTsuwHHpepLqA-9" value="遍历数据源与并发等级" style="whiteSpace=wrap;strokeWidth=2;fontSize=18;fillColor=#f9f7ed;strokeColor=#36393d;" vertex="1" parent="1">
          <mxGeometry x="20" y="738" width="220" height="54" as="geometry" />
        </mxCell>
        <mxCell id="taITbC-kTsuwHHpepLqA-10" value="主库/备库/闪回库" style="whiteSpace=wrap;strokeWidth=2;fontSize=18;fillColor=#f9f7ed;strokeColor=#36393d;" vertex="1" parent="1">
          <mxGeometry x="37" y="842" width="186" height="54" as="geometry" />
        </mxCell>
        <mxCell id="taITbC-kTsuwHHpepLqA-11" value="监控记录指标" style="whiteSpace=wrap;strokeWidth=2;fontSize=18;fillColor=#f9f7ed;strokeColor=#36393d;" vertex="1" parent="1">
          <mxGeometry x="52" y="946" width="156" height="54" as="geometry" />
        </mxCell>
        <mxCell id="taITbC-kTsuwHHpepLqA-12" value="性能基准评估" style="whiteSpace=wrap;strokeWidth=2;fontSize=18;fillColor=#f9f7ed;strokeColor=#36393d;" vertex="1" parent="1">
          <mxGeometry x="52" y="1050" width="156" height="54" as="geometry" />
        </mxCell>
        <mxCell id="taITbC-kTsuwHHpepLqA-13" value="场景二：高可用性测试" style="whiteSpace=wrap;strokeWidth=2;fontSize=18;fillColor=#b1ddf0;strokeColor=#10739e;" vertex="1" parent="1">
          <mxGeometry x="411" y="738" width="220" height="54" as="geometry" />
        </mxCell>
        <mxCell id="taITbC-kTsuwHHpepLqA-14" value="执行GR-01: 备主切换" style="whiteSpace=wrap;strokeWidth=2;fontSize=18;fillColor=#f9f7ed;strokeColor=#36393d;" vertex="1" parent="1">
          <mxGeometry x="283" y="842" width="213" height="54" as="geometry" />
        </mxCell>
        <mxCell id="taITbC-kTsuwHHpepLqA-15" value="验证切换至主库" style="whiteSpace=wrap;strokeWidth=2;fontSize=18;fillColor=#f9f7ed;strokeColor=#36393d;" vertex="1" parent="1">
          <mxGeometry x="304" y="946" width="172" height="54" as="geometry" />
        </mxCell>
        <mxCell id="taITbC-kTsuwHHpepLqA-16" value="执行GR-02: 主备切换" style="whiteSpace=wrap;strokeWidth=2;fontSize=18;fillColor=#f9f7ed;strokeColor=#36393d;" vertex="1" parent="1">
          <mxGeometry x="546" y="842" width="213" height="54" as="geometry" />
        </mxCell>
        <mxCell id="taITbC-kTsuwHHpepLqA-17" value="验证切换回备库" style="whiteSpace=wrap;strokeWidth=2;fontSize=18;fillColor=#f9f7ed;strokeColor=#36393d;" vertex="1" parent="1">
          <mxGeometry x="566" y="946" width="172" height="54" as="geometry" />
        </mxCell>
        <mxCell id="taITbC-kTsuwHHpepLqA-18" value="高可用性验证" style="whiteSpace=wrap;strokeWidth=2;fontSize=18;fillColor=#f9f7ed;strokeColor=#36393d;" vertex="1" parent="1">
          <mxGeometry x="443" y="1050" width="156" height="54" as="geometry" />
        </mxCell>
        <mxCell id="taITbC-kTsuwHHpepLqA-19" value="场景三：可靠性测试" style="whiteSpace=wrap;strokeWidth=2;fontSize=18;fillColor=#b1ddf0;strokeColor=#10739e;" vertex="1" parent="1">
          <mxGeometry x="944" y="738" width="204" height="54" as="geometry" />
        </mxCell>
        <mxCell id="taITbC-kTsuwHHpepLqA-20" value="执行GR-03: 任务重试" style="whiteSpace=wrap;strokeWidth=2;fontSize=18;fillColor=#f9f7ed;strokeColor=#36393d;" vertex="1" parent="1">
          <mxGeometry x="809" y="842" width="213" height="54" as="geometry" />
        </mxCell>
        <mxCell id="taITbC-kTsuwHHpepLqA-21" value="验证自动续传" style="whiteSpace=wrap;strokeWidth=2;fontSize=18;fillColor=#f9f7ed;strokeColor=#36393d;" vertex="1" parent="1">
          <mxGeometry x="837" y="946" width="156" height="54" as="geometry" />
        </mxCell>
        <mxCell id="taITbC-kTsuwHHpepLqA-22" value="执行GR-04: 失败报警" style="whiteSpace=wrap;strokeWidth=2;fontSize=18;fillColor=#f9f7ed;strokeColor=#36393d;" vertex="1" parent="1">
          <mxGeometry x="1071" y="842" width="213" height="54" as="geometry" />
        </mxCell>
        <mxCell id="taITbC-kTsuwHHpepLqA-23" value="验证报警机制" style="whiteSpace=wrap;strokeWidth=2;fontSize=18;fillColor=#f9f7ed;strokeColor=#36393d;" vertex="1" parent="1">
          <mxGeometry x="1099" y="946" width="156" height="54" as="geometry" />
        </mxCell>
        <mxCell id="taITbC-kTsuwHHpepLqA-24" value="可靠性验证" style="whiteSpace=wrap;strokeWidth=2;fontSize=18;fillColor=#f9f7ed;strokeColor=#36393d;" vertex="1" parent="1">
          <mxGeometry x="976" y="1050" width="140" height="54" as="geometry" />
        </mxCell>
        <mxCell id="taITbC-kTsuwHHpepLqA-25" value="结果分析与讨论" style="whiteSpace=wrap;strokeWidth=2;fontSize=18;fillColor=#f8cecc;strokeColor=#b85450;" vertex="1" parent="1">
          <mxGeometry x="435" y="1154" width="172" height="54" as="geometry" />
        </mxCell>
        <mxCell id="taITbC-kTsuwHHpepLqA-26" value="性能趋势分析" style="whiteSpace=wrap;strokeWidth=2;fontSize=18;fillColor=#fff2cc;strokeColor=#d6b656;" vertex="1" parent="1">
          <mxGeometry x="177" y="1258" width="156" height="54" as="geometry" />
        </mxCell>
        <mxCell id="taITbC-kTsuwHHpepLqA-27" value="数据源对比分析" style="whiteSpace=wrap;strokeWidth=2;fontSize=18;fillColor=#fff2cc;strokeColor=#d6b656;" vertex="1" parent="1">
          <mxGeometry x="383" y="1258" width="172" height="54" as="geometry" />
        </mxCell>
        <mxCell id="taITbC-kTsuwHHpepLqA-28" value="系统瓶颈定位" style="whiteSpace=wrap;strokeWidth=2;fontSize=18;fillColor=#fff2cc;strokeColor=#d6b656;" vertex="1" parent="1">
          <mxGeometry x="605" y="1258" width="156" height="54" as="geometry" />
        </mxCell>
        <mxCell id="taITbC-kTsuwHHpepLqA-29" value="规则有效性总结" style="whiteSpace=wrap;strokeWidth=2;fontSize=18;fillColor=#fff2cc;strokeColor=#d6b656;" vertex="1" parent="1">
          <mxGeometry x="811" y="1258" width="172" height="54" as="geometry" />
        </mxCell>
        <mxCell id="taITbC-kTsuwHHpepLqA-30" value="形成最终测试结论" style="whiteSpace=wrap;strokeWidth=2;fontSize=18;fillColor=#ffe6cc;strokeColor=#d79b00;" vertex="1" parent="1">
          <mxGeometry x="427" y="1362" width="188" height="54" as="geometry" />
        </mxCell>
        <mxCell id="taITbC-kTsuwHHpepLqA-31" value="测试结束" style="whiteSpace=wrap;strokeWidth=2;fontSize=18;fillColor=#e1d5e7;strokeColor=#9673a6;" vertex="1" parent="1">
          <mxGeometry x="459" y="1466" width="124" height="54" as="geometry" />
        </mxCell>
        <mxCell id="taITbC-kTsuwHHpepLqA-32" value="" style="curved=1;startArrow=none;endArrow=block;exitX=0;exitY=0.65;entryX=0.5;entryY=0;rounded=0;fontSize=18;" edge="1" parent="1" source="taITbC-kTsuwHHpepLqA-6" target="taITbC-kTsuwHHpepLqA-7">
          <mxGeometry relative="1" as="geometry">
            <Array as="points">
              <mxPoint x="130" y="505" />
            </Array>
          </mxGeometry>
        </mxCell>
        <mxCell id="taITbC-kTsuwHHpepLqA-33" value="" style="curved=1;startArrow=none;endArrow=block;exitX=0.5;exitY=1;entryX=0.5;entryY=0;rounded=0;fontSize=18;" edge="1" parent="1" source="taITbC-kTsuwHHpepLqA-7" target="taITbC-kTsuwHHpepLqA-8">
          <mxGeometry relative="1" as="geometry">
            <Array as="points" />
          </mxGeometry>
        </mxCell>
        <mxCell id="taITbC-kTsuwHHpepLqA-34" value="" style="curved=1;startArrow=none;endArrow=block;exitX=0.5;exitY=1;entryX=0.5;entryY=0;rounded=0;fontSize=18;" edge="1" parent="1" source="taITbC-kTsuwHHpepLqA-8" target="taITbC-kTsuwHHpepLqA-9">
          <mxGeometry relative="1" as="geometry">
            <Array as="points" />
          </mxGeometry>
        </mxCell>
        <mxCell id="taITbC-kTsuwHHpepLqA-35" value="" style="curved=1;startArrow=none;endArrow=block;exitX=0.5;exitY=1;entryX=0.5;entryY=0;rounded=0;fontSize=18;" edge="1" parent="1" source="taITbC-kTsuwHHpepLqA-9" target="taITbC-kTsuwHHpepLqA-10">
          <mxGeometry relative="1" as="geometry">
            <Array as="points" />
          </mxGeometry>
        </mxCell>
        <mxCell id="taITbC-kTsuwHHpepLqA-36" value="" style="curved=1;startArrow=none;endArrow=block;exitX=0.5;exitY=1;entryX=0.5;entryY=0;rounded=0;fontSize=18;" edge="1" parent="1" source="taITbC-kTsuwHHpepLqA-10" target="taITbC-kTsuwHHpepLqA-11">
          <mxGeometry relative="1" as="geometry">
            <Array as="points" />
          </mxGeometry>
        </mxCell>
        <mxCell id="taITbC-kTsuwHHpepLqA-37" value="" style="curved=1;startArrow=none;endArrow=block;exitX=0.5;exitY=1;entryX=0.5;entryY=0;rounded=0;fontSize=18;" edge="1" parent="1" source="taITbC-kTsuwHHpepLqA-11" target="taITbC-kTsuwHHpepLqA-12">
          <mxGeometry relative="1" as="geometry">
            <Array as="points" />
          </mxGeometry>
        </mxCell>
        <mxCell id="taITbC-kTsuwHHpepLqA-38" value="" style="curved=1;startArrow=none;endArrow=block;exitX=0.5;exitY=1;entryX=0.5;entryY=0;rounded=0;fontSize=18;" edge="1" parent="1" source="taITbC-kTsuwHHpepLqA-6" target="taITbC-kTsuwHHpepLqA-13">
          <mxGeometry relative="1" as="geometry">
            <Array as="points" />
          </mxGeometry>
        </mxCell>
        <mxCell id="taITbC-kTsuwHHpepLqA-39" value="" style="curved=1;startArrow=none;endArrow=block;exitX=0.19;exitY=1;entryX=0.5;entryY=0;rounded=0;fontSize=18;" edge="1" parent="1" source="taITbC-kTsuwHHpepLqA-13" target="taITbC-kTsuwHHpepLqA-14">
          <mxGeometry relative="1" as="geometry">
            <Array as="points">
              <mxPoint x="390" y="817" />
            </Array>
          </mxGeometry>
        </mxCell>
        <mxCell id="taITbC-kTsuwHHpepLqA-40" value="" style="curved=1;startArrow=none;endArrow=block;exitX=0.5;exitY=1;entryX=0.5;entryY=0;rounded=0;fontSize=18;" edge="1" parent="1" source="taITbC-kTsuwHHpepLqA-14" target="taITbC-kTsuwHHpepLqA-15">
          <mxGeometry relative="1" as="geometry">
            <Array as="points" />
          </mxGeometry>
        </mxCell>
        <mxCell id="taITbC-kTsuwHHpepLqA-41" value="" style="curved=1;startArrow=none;endArrow=block;exitX=0.81;exitY=1;entryX=0.5;entryY=0;rounded=0;fontSize=18;" edge="1" parent="1" source="taITbC-kTsuwHHpepLqA-13" target="taITbC-kTsuwHHpepLqA-16">
          <mxGeometry relative="1" as="geometry">
            <Array as="points">
              <mxPoint x="652" y="817" />
            </Array>
          </mxGeometry>
        </mxCell>
        <mxCell id="taITbC-kTsuwHHpepLqA-42" value="" style="curved=1;startArrow=none;endArrow=block;exitX=0.5;exitY=1;entryX=0.5;entryY=0;rounded=0;fontSize=18;" edge="1" parent="1" source="taITbC-kTsuwHHpepLqA-16" target="taITbC-kTsuwHHpepLqA-17">
          <mxGeometry relative="1" as="geometry">
            <Array as="points" />
          </mxGeometry>
        </mxCell>
        <mxCell id="taITbC-kTsuwHHpepLqA-43" value="" style="curved=1;startArrow=none;endArrow=block;exitX=0.5;exitY=1;entryX=0.06;entryY=0;rounded=0;fontSize=18;" edge="1" parent="1" source="taITbC-kTsuwHHpepLqA-15" target="taITbC-kTsuwHHpepLqA-18">
          <mxGeometry relative="1" as="geometry">
            <Array as="points">
              <mxPoint x="390" y="1025" />
            </Array>
          </mxGeometry>
        </mxCell>
        <mxCell id="taITbC-kTsuwHHpepLqA-44" value="" style="curved=1;startArrow=none;endArrow=block;exitX=0.5;exitY=1;entryX=0.94;entryY=0;rounded=0;fontSize=18;" edge="1" parent="1" source="taITbC-kTsuwHHpepLqA-17" target="taITbC-kTsuwHHpepLqA-18">
          <mxGeometry relative="1" as="geometry">
            <Array as="points">
              <mxPoint x="652" y="1025" />
            </Array>
          </mxGeometry>
        </mxCell>
        <mxCell id="taITbC-kTsuwHHpepLqA-45" value="" style="curved=1;startArrow=none;endArrow=block;exitX=1;exitY=0.61;entryX=0.5;entryY=0;rounded=0;fontSize=18;" edge="1" parent="1" source="taITbC-kTsuwHHpepLqA-6" target="taITbC-kTsuwHHpepLqA-19">
          <mxGeometry relative="1" as="geometry">
            <Array as="points">
              <mxPoint x="1046" y="505" />
            </Array>
          </mxGeometry>
        </mxCell>
        <mxCell id="taITbC-kTsuwHHpepLqA-46" value="" style="curved=1;startArrow=none;endArrow=block;exitX=0.17;exitY=1;entryX=0.5;entryY=0;rounded=0;fontSize=18;" edge="1" parent="1" source="taITbC-kTsuwHHpepLqA-19" target="taITbC-kTsuwHHpepLqA-20">
          <mxGeometry relative="1" as="geometry">
            <Array as="points">
              <mxPoint x="915" y="817" />
            </Array>
          </mxGeometry>
        </mxCell>
        <mxCell id="taITbC-kTsuwHHpepLqA-47" value="" style="curved=1;startArrow=none;endArrow=block;exitX=0.5;exitY=1;entryX=0.5;entryY=0;rounded=0;fontSize=18;" edge="1" parent="1" source="taITbC-kTsuwHHpepLqA-20" target="taITbC-kTsuwHHpepLqA-21">
          <mxGeometry relative="1" as="geometry">
            <Array as="points" />
          </mxGeometry>
        </mxCell>
        <mxCell id="taITbC-kTsuwHHpepLqA-48" value="" style="curved=1;startArrow=none;endArrow=block;exitX=0.83;exitY=1;entryX=0.5;entryY=0;rounded=0;fontSize=18;" edge="1" parent="1" source="taITbC-kTsuwHHpepLqA-19" target="taITbC-kTsuwHHpepLqA-22">
          <mxGeometry relative="1" as="geometry">
            <Array as="points">
              <mxPoint x="1177" y="817" />
            </Array>
          </mxGeometry>
        </mxCell>
        <mxCell id="taITbC-kTsuwHHpepLqA-49" value="" style="curved=1;startArrow=none;endArrow=block;exitX=0.5;exitY=1;entryX=0.5;entryY=0;rounded=0;fontSize=18;" edge="1" parent="1" source="taITbC-kTsuwHHpepLqA-22" target="taITbC-kTsuwHHpepLqA-23">
          <mxGeometry relative="1" as="geometry">
            <Array as="points" />
          </mxGeometry>
        </mxCell>
        <mxCell id="taITbC-kTsuwHHpepLqA-50" value="" style="curved=1;startArrow=none;endArrow=block;exitX=0.5;exitY=1;entryX=0.01;entryY=0;rounded=0;fontSize=18;" edge="1" parent="1" source="taITbC-kTsuwHHpepLqA-21" target="taITbC-kTsuwHHpepLqA-24">
          <mxGeometry relative="1" as="geometry">
            <Array as="points">
              <mxPoint x="915" y="1025" />
            </Array>
          </mxGeometry>
        </mxCell>
        <mxCell id="taITbC-kTsuwHHpepLqA-51" value="" style="curved=1;startArrow=none;endArrow=block;exitX=0.5;exitY=1;entryX=0.99;entryY=0;rounded=0;fontSize=18;" edge="1" parent="1" source="taITbC-kTsuwHHpepLqA-23" target="taITbC-kTsuwHHpepLqA-24">
          <mxGeometry relative="1" as="geometry">
            <Array as="points">
              <mxPoint x="1177" y="1025" />
            </Array>
          </mxGeometry>
        </mxCell>
        <mxCell id="taITbC-kTsuwHHpepLqA-52" value="" style="curved=1;startArrow=none;endArrow=block;exitX=0.5;exitY=1;entryX=0;entryY=0.29;rounded=0;fontSize=18;" edge="1" parent="1" source="taITbC-kTsuwHHpepLqA-12" target="taITbC-kTsuwHHpepLqA-25">
          <mxGeometry relative="1" as="geometry">
            <Array as="points">
              <mxPoint x="130" y="1129" />
            </Array>
          </mxGeometry>
        </mxCell>
        <mxCell id="taITbC-kTsuwHHpepLqA-53" value="" style="curved=1;startArrow=none;endArrow=block;exitX=0.5;exitY=1;entryX=0.5;entryY=0;rounded=0;fontSize=18;" edge="1" parent="1" source="taITbC-kTsuwHHpepLqA-18" target="taITbC-kTsuwHHpepLqA-25">
          <mxGeometry relative="1" as="geometry">
            <Array as="points" />
          </mxGeometry>
        </mxCell>
        <mxCell id="taITbC-kTsuwHHpepLqA-54" value="" style="curved=1;startArrow=none;endArrow=block;exitX=0.5;exitY=1;entryX=1;entryY=0.34;rounded=0;fontSize=18;" edge="1" parent="1" source="taITbC-kTsuwHHpepLqA-24" target="taITbC-kTsuwHHpepLqA-25">
          <mxGeometry relative="1" as="geometry">
            <Array as="points">
              <mxPoint x="1046" y="1129" />
            </Array>
          </mxGeometry>
        </mxCell>
        <mxCell id="taITbC-kTsuwHHpepLqA-55" value="" style="curved=1;startArrow=none;endArrow=block;exitX=0;exitY=0.81;entryX=0.5;entryY=0;rounded=0;fontSize=18;" edge="1" parent="1" source="taITbC-kTsuwHHpepLqA-25" target="taITbC-kTsuwHHpepLqA-26">
          <mxGeometry relative="1" as="geometry">
            <Array as="points">
              <mxPoint x="255" y="1233" />
            </Array>
          </mxGeometry>
        </mxCell>
        <mxCell id="taITbC-kTsuwHHpepLqA-56" value="" style="curved=1;startArrow=none;endArrow=block;exitX=0.34;exitY=1;entryX=0.5;entryY=0;rounded=0;fontSize=18;" edge="1" parent="1" source="taITbC-kTsuwHHpepLqA-25" target="taITbC-kTsuwHHpepLqA-27">
          <mxGeometry relative="1" as="geometry">
            <Array as="points">
              <mxPoint x="469" y="1233" />
            </Array>
          </mxGeometry>
        </mxCell>
        <mxCell id="taITbC-kTsuwHHpepLqA-57" value="" style="curved=1;startArrow=none;endArrow=block;exitX=0.99;exitY=1;entryX=0.5;entryY=0;rounded=0;fontSize=18;" edge="1" parent="1" source="taITbC-kTsuwHHpepLqA-25" target="taITbC-kTsuwHHpepLqA-28">
          <mxGeometry relative="1" as="geometry">
            <Array as="points">
              <mxPoint x="683" y="1233" />
            </Array>
          </mxGeometry>
        </mxCell>
        <mxCell id="taITbC-kTsuwHHpepLqA-58" value="" style="curved=1;startArrow=none;endArrow=block;exitX=1;exitY=0.72;entryX=0.5;entryY=0;rounded=0;fontSize=18;" edge="1" parent="1" source="taITbC-kTsuwHHpepLqA-25" target="taITbC-kTsuwHHpepLqA-29">
          <mxGeometry relative="1" as="geometry">
            <Array as="points">
              <mxPoint x="897" y="1233" />
            </Array>
          </mxGeometry>
        </mxCell>
        <mxCell id="taITbC-kTsuwHHpepLqA-59" value="" style="curved=1;startArrow=none;endArrow=block;exitX=0.5;exitY=1;entryX=0;entryY=0.16;rounded=0;fontSize=18;" edge="1" parent="1" source="taITbC-kTsuwHHpepLqA-26" target="taITbC-kTsuwHHpepLqA-30">
          <mxGeometry relative="1" as="geometry">
            <Array as="points">
              <mxPoint x="255" y="1337" />
            </Array>
          </mxGeometry>
        </mxCell>
        <mxCell id="taITbC-kTsuwHHpepLqA-60" value="" style="curved=1;startArrow=none;endArrow=block;exitX=0.5;exitY=1;entryX=0.35;entryY=0;rounded=0;fontSize=18;" edge="1" parent="1" source="taITbC-kTsuwHHpepLqA-27" target="taITbC-kTsuwHHpepLqA-30">
          <mxGeometry relative="1" as="geometry">
            <Array as="points">
              <mxPoint x="469" y="1337" />
            </Array>
          </mxGeometry>
        </mxCell>
        <mxCell id="taITbC-kTsuwHHpepLqA-61" value="" style="curved=1;startArrow=none;endArrow=block;exitX=0.5;exitY=1;entryX=0.95;entryY=0;rounded=0;fontSize=18;" edge="1" parent="1" source="taITbC-kTsuwHHpepLqA-28" target="taITbC-kTsuwHHpepLqA-30">
          <mxGeometry relative="1" as="geometry">
            <Array as="points">
              <mxPoint x="683" y="1337" />
            </Array>
          </mxGeometry>
        </mxCell>
        <mxCell id="taITbC-kTsuwHHpepLqA-62" value="" style="curved=1;startArrow=none;endArrow=block;exitX=0.5;exitY=1;entryX=1;entryY=0.26;rounded=0;fontSize=18;" edge="1" parent="1" source="taITbC-kTsuwHHpepLqA-29" target="taITbC-kTsuwHHpepLqA-30">
          <mxGeometry relative="1" as="geometry">
            <Array as="points">
              <mxPoint x="897" y="1337" />
            </Array>
          </mxGeometry>
        </mxCell>
        <mxCell id="taITbC-kTsuwHHpepLqA-63" value="" style="curved=1;startArrow=none;endArrow=block;exitX=0.5;exitY=1;entryX=0.5;entryY=0;rounded=0;fontSize=18;" edge="1" parent="1" source="taITbC-kTsuwHHpepLqA-30" target="taITbC-kTsuwHHpepLqA-31">
          <mxGeometry relative="1" as="geometry">
            <Array as="points" />
          </mxGeometry>
        </mxCell>
        <mxCell id="taITbC-kTsuwHHpepLqA-64" value="" style="curved=1;startArrow=none;endArrow=block;exitX=0.5;exitY=1;entryX=0.5;entryY=0;rounded=0;fontSize=18;" edge="1" parent="1" source="taITbC-kTsuwHHpepLqA-5" target="taITbC-kTsuwHHpepLqA-1">
          <mxGeometry relative="1" as="geometry">
            <Array as="points" />
          </mxGeometry>
        </mxCell>
        <mxCell id="taITbC-kTsuwHHpepLqA-65" value="" style="curved=1;startArrow=none;endArrow=block;exitX=0.5;exitY=1;entryX=0.5;entryY=0;rounded=0;fontSize=18;" edge="1" parent="1" source="taITbC-kTsuwHHpepLqA-1" target="taITbC-kTsuwHHpepLqA-6">
          <mxGeometry relative="1" as="geometry">
            <Array as="points" />
          </mxGeometry>
        </mxCell>
      </root>
    </mxGraphModel>
  </diagram>
</mxfile>
